{
  "version": "0.5.1",
  "modules": [
    {
      "plugin": "Fundamental",
      "model": "LFO",
      "pos": [
        0.0,
        0.0
      ],
      "params": [
        1.0,
        1.0,
        3.0110011100769043,
        0.0,
        0.47350031137466431,
        0.0,
        0.0
      ]
    },
    {
      "plugin": "Grayscale",
      "model": "Algorhythm",
      "pos": [
        960.0,
        0.0
      ],
      "params": [
        0.0,
        0.0,
        0.0,
        0.0,
        0.0,
        0.0,
        0.0,
        0.0,
        0.0,
        0.0,
        0.0,
        0.0
      ],
      "data": {
        "looping": true,
        "seq": true,
        "gate": true,
        "pattern": [
          1,
          1,
          1,
          1,
          1,
          1,
          1,
          1
        ]
      }
    },
    {
      "plugin": "Fundamental",
      "model": "ADSR",
      "pos": [
        1140.0,
        0.0
      ],
      "params": [
        0.029999975115060806,
        0.0,
        1.0,
        0.06149996817111969
      ]
    },
    {
      "plugin": "Fundamental",
      "model": "VCO",
      "pos": [
        1260.0,
        0.0
      ],
      "params": [
        1.0,
        1.0,
        -23.489984512329102,
        0.0,
        0.5,
        0.0,
        0.0
      ]
    },
    {
      "plugin": "Fundamental",
      "model": "VCA",
      "pos": [
        1410.0,
        0.0
      ],
      "params": [
        0.5,
        0.5
      ]
    },
    {
      "plugin": "Fundamental",
      "model": "VCMixer",
      "pos": [
        2445.0,
        0.0
      ],
      "params": [
        0.92099994421005249,
        0.51000028848648071,
        0.38550004363059998,
        1.0
      ]
    },
    {
      "plugin": "Core",
      "model": "AudioInterface",
      "pos": [
        2700.0,
        0.0
      ],
      "params": [],
      "data": {
        "driver": 8,
        "device": 1,
        "sampleRate": 44100.0,
        "blockSize": 256
      }
    },
    {
      "plugin": "AudibleInstruments",
      "model": "Links",
      "pos": [
        2640.0,
        0.0
      ],
      "params": []
    },
    {
      "plugin": "AudibleInstruments",
      "model": "Links",
      "pos": [
        150.0,
        0.0
      ],
      "params": []
    },
    {
      "plugin": "Grayscale",
      "model": "Algorhythm",
      "pos": [
        1305.0,
        380.0
      ],
      "params": [
        0.0,
        0.0,
        0.0,
        0.0,
        0.0,
        0.0,
        0.0,
        0.0,
        0.0,
        0.0,
        0.0,
        0.0
      ],
      "data": {
        "looping": true,
        "seq": true,
        "gate": true,
        "pattern": [
          1,
          1,
          1,
          1,
          1,
          1,
          1,
          1
        ]
      }
    },
    {
      "plugin": "Fundamental",
      "model": "ADSR",
      "pos": [
        1485.0,
        380.0
      ],
      "params": [
        0.0,
        0.0,
        0.35700005292892456,
        0.15750004351139069
      ]
    },
    {
      "plugin": "Fundamental",
      "model": "VCO",
      "pos": [
        1605.0,
        380.0
      ],
      "params": [
        1.0,
        1.0,
        -11.339985847473145,
        -0.23999935388565063,
        0.5,
        0.0,
        0.0
      ]
    },
    {
      "plugin": "Fundamental",
      "model": "VCA",
      "pos": [
        1755.0,
        380.0
      ],
      "params": [
        0.5,
        0.5
      ]
    },
    {
      "plugin": "Fundamental",
      "model": "Scope",
      "pos": [
        1620.0,
        0.0
      ],
      "params": [
        -0.0,
        0.0,
        0.0,
        0.0,
        -11.359973907470703,
        0.0,
        0.0,
        0.0
      ],
      "data": {
        "lissajous": 0,
        "external": 0
      }
    },
    {
      "plugin": "Fundamental",
      "model": "ADSR",
      "pos": [
        330.0,
        380.0
      ],
      "params": [
        0.0,
        0.0,
        1.0,
        0.57900023460388184
      ]
    },
    {
      "plugin": "Fundamental",
      "model": "VCO",
      "pos": [
        450.0,
        380.0
      ],
      "params": [
        1.0,
        1.0,
        -30.456027984619141,
        -0.26399999856948853,
        0.50600004196166992,
        0.49000072479248047,
        0.0
      ]
    },
    {
      "plugin": "Fundamental",
      "model": "VCA",
      "pos": [
        600.0,
        380.0
      ],
      "params": [
        0.52250045537948608,
        1.0
      ]
    },
    {
      "plugin": "Fundamental",
      "model": "VCF",
      "pos": [
        1815.0,
        0.0
      ],
      "params": [
        0.0,
        0.49699968099594116,
        0.0,
        0.34299951791763306,
        0.49500000476837158
      ]
    },
    {
      "plugin": "Fundamental",
      "model": "ADSR",
      "pos": [
        1500.0,
        0.0
      ],
      "params": [
        0.040499996393918991,
        0.53550028800964355,
        0.0,
        0.49650013446807861
      ]
    },
    {
      "plugin": "Fundamental",
      "model": "VCF",
      "pos": [
        2160.0,
        380.0
      ],
      "params": [
        0.0,
        0.49699968099594116,
        0.0,
        0.47799921035766602,
        0.16199980676174164
      ]
    },
    {
      "plugin": "Fundamental",
      "model": "Scope",
      "pos": [
        1965.0,
        380.0
      ],
      "params": [
        -0.0,
        0.0,
        0.0,
        0.0,
        -10.999970436096191,
        0.0,
        0.0,
        0.0
      ],
      "data": {
        "lissajous": 0,
        "external": 0
      }
    },
    {
      "plugin": "Fundamental",
      "model": "ADSR",
      "pos": [
        1845.0,
        380.0
      ],
      "params": [
        0.0,
        0.51899969577789307,
        0.19649937748908997,
        0.49950042366981506
      ]
    },
    {
      "plugin": "Fundamental",
      "model": "VCF",
      "pos": [
        690.0,
        380.0
      ],
      "params": [
        0.94800037145614624,
        0.51500034332275391,
        0.0,
        -1.0,
        0.076499991118907928
      ]
    },
    {
      "plugin": "Fundamental",
      "model": "SEQ3",
      "pos": [
        0.0,
        380.0
      ],
      "params": [
        3.068000316619873,
        0.0,
        0.0,
        8.0,
        0.0,
        0.0,
        0.0,
        0.0,
        0.0,
        0.0,
        0.0,
        0.0,
        0.0,
        0.0,
        0.0,
        0.0,
        0.0,
        0.0,
        0.0,
        0.0,
        0.0,
        0.0,
        0.0,
        0.0,
        0.0,
        0.0,
        0.0,
        0.0,
        0.0,
        0.0,
        0.0,
        0.0,
        0.0,
        0.0,
        0.0,
        0.0
      ],
      "data": {
        "running": true,
        "gates": [
          1,
          0,
          0,
          0,
          1,
          0,
          0,
          0
        ],
        "gateMode": 0
      }
    },
    {
      "plugin": "Fundamental",
      "model": "ADSR",
      "pos": [
        465.0,
        760.0
      ],
      "params": [
        0.0,
        0.5,
        0.39099994301795959,
        0.46650055050849915
      ]
    }
  ],
  "wires": [
    {
      "outputModuleId": 1,
      "outputId": 11,
      "inputModuleId": 2,
      "inputId": 4
    },
    {
      "outputModuleId": 5,
      "outputId": 0,
      "inputModuleId": 7,
      "inputId": 0
    },
    {
      "outputModuleId": 7,
      "outputId": 0,
      "inputModuleId": 6,
      "inputId": 0
    },
    {
      "outputModuleId": 2,
      "outputId": 0,
      "inputModuleId": 4,
      "inputId": 4
    },
    {
      "outputModuleId": 8,
      "outputId": 0,
      "inputModuleId": 1,
      "inputId": 2
    },
    {
      "outputModuleId": 8,
      "outputId": 2,
      "inputModuleId": 9,
      "inputId": 2
    },
    {
      "outputModuleId": 9,
      "outputId": 11,
      "inputModuleId": 10,
      "inputId": 4
    },
    {
      "outputModuleId": 10,
      "outputId": 0,
      "inputModuleId": 12,
      "inputId": 4
    },
    {
      "outputModuleId": 11,
      "outputId": 2,
      "inputModuleId": 12,
      "inputId": 5
    },
    {
      "outputModuleId": 3,
      "outputId": 2,
      "inputModuleId": 4,
      "inputId": 5
    },
    {
      "outputModuleId": 0,
      "outputId": 3,
      "inputModuleId": 8,
      "inputId": 0
    },
    {
      "outputModuleId": 7,
      "outputId": 2,
      "inputModuleId": 6,
      "inputId": 1
    },
    {
      "outputModuleId": 14,
      "outputId": 0,
      "inputModuleId": 16,
      "inputId": 4
    },
    {
      "outputModuleId": 17,
      "outputId": 0,
      "inputModuleId": 5,
      "inputId": 1
    },
    {
      "outputModuleId": 4,
      "outputId": 1,
      "inputModuleId": 17,
      "inputId": 3
    },
    {
      "outputModuleId": 18,
      "outputId": 0,
      "inputModuleId": 17,
      "inputId": 0
    },
    {
      "outputModuleId": 18,
      "outputId": 0,
      "inputModuleId": 13,
      "inputId": 0
    },
    {
      "outputModuleId": 1,
      "outputId": 11,
      "inputModuleId": 18,
      "inputId": 4
    },
    {
      "outputModuleId": 12,
      "outputId": 1,
      "inputModuleId": 19,
      "inputId": 3
    },
    {
      "outputModuleId": 21,
      "outputId": 0,
      "inputModuleId": 20,
      "inputId": 0
    },
    {
      "outputModuleId": 9,
      "outputId": 11,
      "inputModuleId": 21,
      "inputId": 4
    },
    {
      "outputModuleId": 19,
      "outputId": 0,
      "inputModuleId": 5,
      "inputId": 3
    },
    {
      "outputModuleId": 21,
      "outputId": 0,
      "inputModuleId": 19,
      "inputId": 0
    },
    {
      "outputModuleId": 16,
      "outputId": 1,
      "inputModuleId": 22,
      "inputId": 3
    },
    {
      "outputModuleId": 23,
      "outputId": 0,
      "inputModuleId": 14,
      "inputId": 4
    },
    {
      "outputModuleId": 22,
      "outputId": 0,
      "inputModuleId": 5,
      "inputId": 5
    },
    {
      "outputModuleId": 15,
      "outputId": 0,
      "inputModuleId": 16,
      "inputId": 5
    },
    {
      "outputModuleId": 24,
      "outputId": 0,
      "inputModuleId": 15,
      "inputId": 1
    },
    {
      "outputModuleId": 23,
      "outputId": 0,
      "inputModuleId": 24,
      "inputId": 4
    },
    {
      "outputModuleId": 8,
      "outputId": 1,
      "inputModuleId": 23,
      "inputId": 1
    }
  ]
}